<svg xmlns="http://www.w3.org/2000/svg" height="24" viewBox="0 -960 960 960" width="24"><path d="M104.859-111.5q-14.342 0-24.948-6.9-10.607-6.9-15.661-16.6-5.917-9.1-6.333-21.631Q57.5-169.161 64.5-182l375.936-647.885Q447-841.5 457.947-847q10.948-5.5 22.156-5.5 11.207 0 22.052 5.5Q513-841.5 520-830l376 648q6.5 12.839 6.083 25.369-.416 12.531-6.333 21.631-5.446 9.25-15.891 16.375T855.37-111.5H104.859Zm379.264-130q12.952 0 22.915-10.085Q517-261.671 517-274.623t-10.085-22.415q-10.086-9.462-23.038-9.462t-22.915 9.585Q451-287.329 451-274.377t10.085 22.915q10.086 9.962 23.038 9.962Zm.302-106.5q12.075 0 20.325-8.375T513-377v-157q0-11.675-8.463-20.088-8.463-8.412-20.212-8.412-12.325 0-20.575 8.412-8.25 8.413-8.25 20.088v157q0 12.25 8.425 20.625 8.426 8.375 20.5 8.375Z"/></svg>